# xmcd
#
# Track frame offsets: 
#        150
#        29000
#        48095
#        63367
#        78900
#        103885
#        132260
#        158215
#        185532
#        206215
#        232260
#        248700
#
# Disc length: 3644 seconds
#
# Revision: 0
# Processed by: cddbd v1.4PL0 Copyright (c) Steve Scherf et al.
# Submitted via: ExactAudioCopy v0.90b4
#
DISCID=a90e3a0c
DTITLE=the Phil Morrison trio - sea island blues
DYEAR=1995
DGENRE=Blues
TTITLE0=Autumn Leaves
TTITLE1=Down In RIO
TTITLE2=He Was The KIng
TTITLE3=Remembering Dizzy
TTITLE4=Sea Island Blues
TTITLE5=Without You
TTITLE6=Summertime
TTITLE7=Your Eyes
TTITLE8=The Magic Of Brazil
TTITLE9=Round Midnight
TTITLE10=The Atlanta Song
TTITLE11=I Got That Feelin'
EXTD=
EXTT0=
EXTT1=
EXTT2=
EXTT3=
EXTT4=
EXTT5=
EXTT6=
EXTT7=
EXTT8=
EXTT9=
EXTT10=
EXTT11=
PLAYORDER=
